<svg width="512" height="436" viewBox="0 0 512 436" fill="none" xmlns="http://www.w3.org/2000/svg">
<g clip-path="url(#clip0_22_9029)">
<path d="M482.278 1096.72C469.127 1091.82 454.837 1090.95 441.183 1089.33C385.998 1082.77 331.565 1067.66 275.407 1071.74C242.32 1074.12 209.445 1079.45 176.369 1082.18C161.699 1083.37 153.584 1073.23 148.113 1060.18C142.502 1046.8 138.138 1028.71 119.191 1031.91C95.2464 1035.97 88.5046 1056.07 86.0753 1077.73C85.7232 1080.86 85.1416 1083.97 84.6669 1087.09C81.9844 1085.25 78.9537 1083.77 76.6788 1081.52C41.1063 1046.32 44.2359 997.663 93.1732 976.756C167.313 945.092 208.262 885.587 249.081 822.618C265.568 797.18 288.385 775.826 321.318 791.642C355.344 807.971 348.97 841.763 342.703 869.513C325.919 943.767 346.726 1017.56 394.03 1037.78C436.692 1056.01 483.121 1058.62 527.43 1070.02C548.593 1075.46 568.711 1083.25 585.926 1096.72H669.249C644.845 1083.41 620.584 1069.79 595.627 1057.65C555.089 1037.96 510.563 1032.33 467.121 1022.5C401.128 1007.57 371.078 940.339 384.246 866.339C401.535 769.164 470.346 716.656 540.331 662.716C601.656 615.471 656.295 563.306 655.199 477.173C654.511 422.883 630.922 377.846 593.613 340.088C537.431 283.205 544.585 220.693 573.194 154.104C601.68 87.8365 622.701 20.2448 596.671 -53.0591C586.329 -82.1889 562.828 -96.5371 540.383 -113.125C501.289 -142.04 500.201 -169.857 542.994 -192.682C595.481 -220.666 619.461 -262.41 630.107 -319.444C643.389 -390.62 702.661 -413.226 771.859 -379.752C820.523 -356.219 859.89 -317.121 910.786 -297.665C942.113 -285.692 973.144 -285.839 1003.87 -297.665V-344.091C912.369 -300.092 848.413 -356.991 783.59 -410.088C744.243 -442.308 701.478 -456.668 649.961 -445.264C632.592 -441.421 601.296 -435.88 601.126 -464.58C600.948 -493.089 627.931 -491.081 649.027 -494.414L537.412 -494.414C540.339 -445.817 562.132 -401.547 569.945 -354.036C580.79 -288.079 547.228 -243.761 499.62 -206.35C483.398 -193.621 466.876 -180.987 449.21 -170.485C430.401 -159.3 405.753 -146.758 392.633 -172.689C379.078 -199.44 405.966 -211.207 424.601 -221.326C460.558 -240.85 505.463 -247.763 517.246 -297.801C529.115 -348.188 510.757 -394.463 501.202 -442.077C497.713 -459.389 495.473 -476.947 492.799 -494.418H450.069C456.027 -476.211 462.105 -458.041 467.814 -439.754C482.927 -391.356 503.26 -341.812 463.264 -296.241C436.494 -265.739 397.234 -248.058 373.496 -214.146C340.958 -167.685 307.146 -123.475 252.151 -101.406C239.412 -96.2984 221.291 -91.1431 222.304 -74.2293C223.412 -55.8954 241.615 -48.3096 256.108 -40.3181C300.689 -15.7469 351.328 -23.2133 398.722 -13.4874C422.995 -8.50314 448.221 -2.09088 457.1 24.9307C463.873 45.5399 450.979 62.43 435.569 72.9355C405.146 93.7179 373.611 112.803 341.104 130.105C262.608 171.765 192.979 222.662 153.885 306.145C143.412 328.509 135.025 353.147 149.098 377.186C156.817 390.368 171.135 395.353 186.312 393.316C214.221 389.577 236.725 373.57 259.692 358.848C307.364 328.29 353.828 291.594 412.016 288.094C474.132 284.358 520.26 327.94 569.827 357.619C611.821 382.767 637.344 421.817 629.387 473.179C614.725 567.804 556.145 632.727 479.758 683.242C455.588 699.225 427.675 713.951 398.54 698.445C371.68 684.125 375.466 655.596 380.673 631.685C391.806 580.534 373.021 550.111 329.089 522.238C272.689 486.437 271.601 456.389 317.508 415.962C350.802 386.645 389.515 356.067 435.533 364.202C506.1 376.677 542.796 431.969 543.734 508.785C543.857 518.67 541.681 531.892 554.547 536.268C558.618 537.656 566.555 533.798 569.93 529.903C583.382 514.334 588.699 495.185 590.06 474.91C593.862 418.353 554.591 392.918 513.253 370.873C480.874 353.605 451.533 324.002 411.122 330.697C357.733 339.563 321.211 382.763 273.738 404.541C232.369 423.524 226.43 449.746 255.194 485.431C268.159 501.518 284.211 515.901 301.124 527.811C366.801 574.07 374.505 606.425 331.304 665.6C308.923 696.253 279.894 723.732 264.658 757.572C229.734 835.14 181.426 892.306 98.4867 922.514C9.95318 954.77 -15.38 1036.66 36.8966 1096.72H482.278ZM225.544 340.932C213.952 352.428 194.288 368.689 181.517 351.91C163.175 327.805 187.507 308.19 202.332 292.127C265.429 223.744 345.623 177.422 420.233 123.816C449.725 102.63 477.155 77.0923 485.863 39.7721C493.851 5.56253 465.903 -5.53967 442.54 -18.3922C435.576 -22.2228 423.731 -23.3843 424.961 -32.8397C425.404 -36.2726 440.055 -39.7969 448.273 -39.9242C493.016 -40.6164 521.637 -13.4715 521.637 41.1126C517.681 93.6601 476.435 135.953 428.016 169.327C354.624 219.901 288.626 278.364 225.544 340.932ZM350.129 277.079C347.882 277.783 345.464 277.946 343.126 278.36C343.957 275.854 344.293 273.018 345.698 270.897C375.62 225.633 424.973 204.189 466.314 173.329C528.114 127.185 565.016 38.7935 538.674 -13.4119C518.947 -52.5102 485.63 -68.704 436.993 -68.6324C412.463 -68.9188 383.893 -58.6878 354.881 -50.386C342.564 -46.8537 326.05 -39.431 319.15 -53.8706C312.424 -67.9482 327.937 -76.3693 338.901 -82.2406C424.502 -128.089 555.651 -115.929 582.618 -4.0639C598.642 62.4419 568.664 118.092 528.518 167.509C482.14 224.543 418.682 255.527 350.129 277.059V277.079Z" fill="#34CEAA" fill-opacity="0.05"/>
<path d="M403.681 -494.418H371.531C391.657 -469.883 407.293 -443.275 411.356 -410.446C416.421 -369.565 407.614 -331.847 378.067 -304.014C325.608 -254.601 292.433 -187.694 233.716 -144.55C189.763 -112.258 142.464 -120.647 97.9658 -141.411C45.0838 -166.074 -5.03259 -161.543 -55.8137 -137.99C-58.9788 -136.523 -62.6583 -136.176 -66.1004 -135.305C-65.1786 -138.885 -64.7473 -142.68 -63.2597 -146.002C-45.5862 -185.538 23.7822 -201.039 76.7552 -178.179C129.839 -155.278 182.966 -125.44 238.883 -171.814C277.027 -203.458 299.278 -247.72 328.912 -286.134C351.436 -315.335 382.719 -339.946 384.353 -380.449C386.549 -434.265 357.845 -469.246 315.218 -494.402H101.234C121.451 -487.381 141.59 -480.082 162.128 -474.223C201.027 -463.085 239.674 -480.452 278.542 -476.947C316.496 -473.519 344.56 -453.2 362.795 -420.168C373.992 -399.88 373.639 -378.83 360.049 -358.793C354.716 -350.929 347.784 -346.064 338.684 -347.448C327.847 -349.083 323.412 -358.189 321.038 -367.867C304.979 -433.501 286.222 -447.32 221.47 -429.269C179.18 -417.482 147.829 -439.679 113.748 -453.629C39.6793 -483.956 -33.4993 -436.465 -33.8276 -356.49C-33.9108 -337.197 -35.157 -317.857 -36.9532 -298.644C-38.2034 -285.255 -40.7989 -269.872 -59.0737 -272.462C-75.7819 -274.849 -81.942 -290.362 -81.4277 -304.384C-78.583 -381.936 -63.7899 -472.031 26.714 -494.418L-40.518 -494.418C-87.2397 -434.997 -107.232 -366.813 -99.9004 -291.377C-97.1625 -263.181 -81.7007 -236.8 -48.605 -241.689C-12.7516 -246.988 -17.4875 -281.428 -13.6893 -307.324C-6.82092 -354.207 -13.4638 -407.192 39.2757 -433.473C74.0925 -450.829 107.35 -438.907 135.623 -417.12C160.007 -398.333 183.461 -391.332 215.057 -394.669C284.888 -402.048 309.917 -367.155 292.999 -293.286C277.541 -225.833 223.085 -167.812 175.037 -168.851C139.168 -169.646 112.838 -194.997 81.5306 -207.587C20.4944 -232.138 -28.6763 -205.562 -74.9629 -168.604C-145.277 -112.461 -220.56 -67.2482 -312.682 -59.1732C-321.232 -58.4253 -331.396 -59.6983 -333.347 -69.2133C-335.527 -79.858 -324.947 -82.8255 -317.125 -85.5981C-274.178 -100.865 -229.173 -110.42 -189.055 -133.499C-129.004 -168.055 -122.29 -220.742 -132.418 -283.791C-144.367 -358.145 -127.603 -428.863 -90.4524 -494.418H-125.799C-154.286 -422.964 -150.068 -347.238 -153.625 -272.422C-155.69 -228.872 -165.047 -187.045 -196.533 -154.554C-261.64 -87.3642 -359.519 -90.1885 -431.839 -159.308C-441.675 -168.707 -454.612 -187.69 -469.029 -175.541C-483.629 -163.25 -469.057 -147.617 -460.171 -135.274C-454.106 -126.84 -448.108 -118.244 -441.093 -110.643C-403.839 -70.2992 -370.49 -23.0224 -305.624 -29.3392C-266.249 -33.1739 -235.516 -57.6855 -201.569 -74.2612C-128.062 -110.137 -53.8987 -63.8551 -53.8987 18.5262C-53.8987 120.407 -157.7 192.247 -262.34 170.242C-334.744 155.01 -398.885 117.662 -470.758 102.527C-511.221 94.0061 -559.933 121.811 -570.002 162.473C-578.453 196.535 -554.877 225.355 -511.518 237.109C-450.011 253.816 -392.674 277.286 -352.168 331.484C-309.58 388.487 -294.364 390.436 -234.171 348.306C-184.165 313.301 -132.767 297.39 -72.4703 319.511C-17.3292 339.738 5.57068 324.877 6.09692 265.965C6.77344 190.35 41.428 141.784 110.076 114.997C169.127 91.9574 200.046 35.9134 185.221 -24.7369C177.308 -57.0888 151.512 -69.7583 121.392 -62.8527C94.5118 -56.695 104.379 -32.5057 108.142 -14.7923C118.377 33.296 114.796 76.2608 70.8838 107.467C43.0977 127.213 16.8189 148.507 3.62415 181.813C-6.41736 207.192 -17.1156 232.459 -36.1699 252.5C-78.2151 296.726 -135.026 289.287 -187.809 294.633C-300.287 306.022 -393.255 252.492 -486.521 201.154C-504.685 191.153 -526.39 176.833 -511.842 152.711C-498.05 129.835 -474.011 137.508 -455.119 148.912C-392.14 186.921 -330.969 226.942 -256.449 241.596C-192.786 254.103 -128.32 238.311 -98.7728 197.764C-41.9186 119.755 -27.161 31.4901 -30.2431 -62.4986C-32.1263 -120.146 0.834839 -146.169 55.2162 -127.831C142.326 -98.4624 221.783 -100.495 287.602 -173.739C321.691 -211.656 348.334 -256.443 390.011 -287.335C426.43 -314.333 443.4 -348.801 436.302 -395.035C430.949 -430.216 416.456 -461.959 403.681 -494.418Z" fill="#34CEAA" fill-opacity="0.05"/>
<path d="M514.624 969.066C590.39 995.372 653.1 1046.19 724.917 1079.65C737.712 1085.62 750.686 1091.19 763.659 1096.76H817.178C814.408 1096.36 811.706 1095.83 809.107 1095.32C744.478 1082.53 693.281 1047.18 648.142 999.807C575.739 923.83 591.466 757.078 676.969 697.009C724.466 663.639 770.642 628.244 815.951 591.914C829.304 581.206 841.72 559.693 826.04 546.447C809.783 532.731 802.978 556.893 793.301 566.854C775.667 585.004 759.603 605.622 739.263 620.022C660.724 675.604 589.959 736.243 570.525 838.008C567.094 855.98 559.304 874.66 536.562 868.562C518.952 863.84 517.939 845.797 521.132 830.255C538.541 745.209 594.766 687.963 658.738 636.048C695.212 606.417 739.588 583.696 756.996 535.846C771.378 496.386 750.927 457.984 749.107 418.838C747.604 386.458 753.795 350.661 732.791 323.282C717.139 302.871 689.772 291.367 674.856 270.623C634.805 214.933 648.49 152.126 663.537 92.6496C680.103 27.1622 694.876 -36.7063 679.272 -104.926C664.708 -168.632 665.602 -232.508 694.722 -293.178C699.79 -303.732 707.695 -313.545 720.905 -310.733C734.563 -307.825 736.336 -295.617 736.276 -283.655C736.039 -234.429 721.356 -186.461 726.385 -136.475C731.109 -89.5361 762.29 -54.9805 797.835 -63.4772C859.603 -78.2391 927.768 -45.8872 949.762 13.5062C971.602 72.4461 959.408 136.82 972.682 197.566C978.937 226.206 983.143 255.642 1003.86 277.862V184.383C992.389 152.958 989.62 119.608 988.939 86.8101C986.834 -16.4669 940.334 -83.1 841.095 -114.469C777.574 -134.538 755.987 -177.475 759.944 -263.985C761.348 -294.75 771.417 -331.04 730.179 -339.604C692.063 -347.52 681.871 -311.938 670.599 -284.686C654.674 -246.18 630.5 -214.357 602.35 -184.018C573.801 -153.249 603.905 -130.874 619.727 -108.419C672.19 -33.9814 664.356 46.7173 629.974 120.972C590.259 206.738 607.387 270.444 669.052 336.385C731.493 403.157 739.311 507.802 692.083 571.706C655.208 621.605 597.705 650.142 554.707 694.169C503.498 746.605 443.222 794.566 433.845 873.86C427.163 930.565 470.062 953.596 514.624 969.066Z" fill="#34CEAA" fill-opacity="0.05"/>
<path d="M396.532 35.5471C395.74 31.4499 388.152 26.7957 382.997 25.7615C339.713 17.2091 294.669 18.7207 252.932 0.788561C238.08 -5.5959 230.586 5.34321 229.395 18.7406C223.615 83.8143 194.939 130.3 130.69 152.603C93.1667 165.627 55.8732 184.589 47.0504 228.183C40.8823 258.669 43.2324 290.993 42.6627 322.513C41.9307 362.765 21.0684 381.927 -17.511 374.444C-51.6393 367.821 -85.0595 354.372 -119.315 352.168C-192.96 347.395 -237.81 397.607 -278.934 449.017C-298.415 473.37 -295.06 500.785 -270.384 522.047C-254.083 536.092 -236.639 530.977 -221.154 519.859C-202.669 506.589 -187.041 487.415 -166.812 478.787C-61.6769 433.925 40.4075 455.402 134.199 508.963C217.728 556.658 235.931 621.581 197.898 685.624C162.686 744.894 102.152 761.999 42.8763 781.999C-36.3873 808.727 -105.91 846.071 -127.346 938.007C-138.915 987.607 -163.745 1029.34 -218.815 1037.97C-268.584 1045.77 -300.105 1012.58 -331.277 979.866C-357.635 952.208 -382.082 921.041 -419.368 907.29C-484.448 883.292 -532.764 916.041 -578.706 955.255V1012.39C-565.084 992.392 -552.542 971.5 -532.02 957.268C-471.229 915.102 -419.301 925.087 -373.414 984.97C-342.304 1025.58 -308.884 1064.4 -268.963 1096.75H-119.607C-141.736 1003.13 -100.07 930.871 -36.597 867.826C3.93292 827.57 60.1343 812.764 109.238 786.395C174.357 751.426 229.281 706.516 243.82 628.283C254.483 570.915 214.017 542.99 175.607 514.043C147.805 493.092 112.304 478.505 106.172 437.768C105.198 431.292 108.7 424.132 110.128 417.29C113.337 418.837 117.384 419.625 119.592 422.063C124.636 427.68 128.529 434.327 133.333 440.182C163.651 477.145 202.448 504.457 239.065 534.271C289.13 575.028 287.591 624.305 247.603 695.127C195.271 787.811 108.197 833.918 21.3176 881.744C-42.5554 916.904 -102.005 1016.09 -66.9113 1096.73H-17.3251C-61.9974 1003.21 -12.3044 904.756 79.4854 873.407C119.881 859.611 164.343 852.722 192.007 813.985C224.22 768.9 241.597 714.539 280.303 673.336C298.629 653.845 318.214 632.997 315.041 603.06C310.847 563.504 276.378 547.501 250.784 525.133C203.437 483.764 145.843 449.503 125.982 386.004C99.2122 300.421 144.533 235.068 198.116 175.325C248.758 118.839 320.267 94.5744 382.953 56.7092C390.625 52.079 398.462 45.3962 396.532 35.5471ZM139.22 221.595C113.321 268.729 104.15 320.091 96.328 372.65C87.058 434.952 41.0524 464.002 -19.9917 438.79C-100.889 405.376 -168.185 414.605 -228.327 478.569C-235.128 485.804 -249.296 496.37 -255.179 485.888C-265.351 467.773 -249.565 452.418 -238.309 439.347C-180.913 372.67 -113.332 361.687 -32.9926 396.311C-2.13226 409.609 40.9099 428.134 59.7664 376.978C69.4003 350.848 68.4191 320.751 72.2371 292.445C73.8632 258.581 71.7505 223.067 98.8997 196.929C110.401 185.854 125.902 175.122 140.719 184.748C155.263 194.176 145.602 209.972 139.22 221.595Z" fill="#34CEAA" fill-opacity="0.05"/>
<path d="M162.966 624.274C152.343 613.987 138.527 641.669 127.465 653.571C103.659 679.18 76.0907 693.994 41.7289 679.681C9.50757 666.264 -21.78 658.36 -55.9203 671.618C-126.195 698.906 -186.392 747.941 -263.511 761.669C-329.458 773.407 -405.152 736.938 -425.659 672.867C-441.746 622.643 -428.646 569.045 -441.164 518.129C-461.18 436.758 -498.786 369.174 -578.706 334.169V371.958C-518.311 401.752 -490.873 457.005 -475.68 518.423C-455.138 601.496 -443.304 686.766 -470.117 770.344C-486.568 821.623 -529.828 848.251 -578.706 865.017V897.604C-466.462 813.373 -377.987 841.047 -294.842 937.382C-250.926 988.259 -205.193 988.446 -180.549 926.014C-143.682 832.61 -86.5551 764.744 12.1545 736.314C59.4143 722.706 112.549 721.827 148.351 680.385C162.381 664.144 179.833 640.607 162.966 624.274ZM-15.2756 718.119C-80.1615 752.4 -130.567 807.251 -193.316 844.396C-215.702 857.65 -240.398 864.178 -269.676 864.333C-311.883 862.706 -352.539 846.465 -389.754 821.337C-397.706 815.966 -408.745 807.895 -402.292 795.624C-393.781 779.414 -377.991 781.216 -364.535 786.769C-264.374 828.103 -185.704 780.404 -107.762 726.17C-81.5027 707.872 -54.2704 689.475 -19.3587 692.378C-11.9641 692.995 -5.24603 696.392 -5.29346 702.399C-5.34491 707.785 -10.338 715.514 -15.2756 718.119Z" fill="#34CEAA" fill-opacity="0.05"/>
<path d="M91.6947 531.172C15.9919 498.693 -64.0115 510.424 -142.678 516.57C-158.693 517.819 -175.516 532.724 -172.375 552.155C-170.294 565.02 -152.988 563.035 -142.836 560.561C-85.8629 546.67 -28.4944 538.03 29.9701 547.334C47.2993 550.091 73.9777 548.038 73.9184 572.852C73.8551 598.684 48.5654 596.719 30.4251 595.108C-23.2165 590.335 -76.0866 584.452 -129.174 602.945C-240.497 641.725 -305.956 613.084 -333.616 497.929C-366.288 361.91 -449.045 291.081 -578.706 265.853V287.552C-577.826 287.68 -576.957 287.876 -576.107 288.137C-466.818 323.142 -379.566 452.948 -374.023 586.289C-372.247 628.928 -364.271 671.547 -323.428 695.044C-276.702 721.926 -232.92 701.615 -193.486 676.42C-120.43 629.747 -49.519 585.506 43.4854 623.701C68.6919 634.044 101.206 622.07 114.824 592.463C126.547 566.973 115.105 541.216 91.6947 531.172Z" fill="#34CEAA" fill-opacity="0.05"/>
<path d="M498.301 518.944C494.614 548.778 496.968 589.058 455.67 605.188C429.134 615.531 435.097 590.263 433.063 576.548C427.615 539.896 406.12 514.573 377.582 493.645C367.093 485.952 349.954 480.12 352.913 464.826C356.976 443.846 376.846 434.825 394.852 428.253C458.709 404.975 498.301 437.816 498.301 518.944Z" fill="#34CEAA" fill-opacity="0.05"/>
<path d="M70.5736 19.3656C71.812 51.8488 62.3561 77.5616 27.6461 86.7147C6.19026 92.3752 2.15465 76.9212 2.49095 62.052C3.46423 18.5104 5.76688 -25.0233 8.663 -68.4813C9.37516 -79.1619 12.6195 -92.4121 26.376 -93.0923C46.1148 -94.0669 50.7992 -76.3853 56.0732 -62.5703C66.0376 -36.4318 70.9588 -8.62431 70.5736 19.3656Z" fill="#34CEAA" fill-opacity="0.05"/>
</g>
<defs>
<clipPath id="clip0_22_9029">
<rect x="-86.8247" y="0.609863" width="598.825" height="601.099" rx="299.412" fill="white"/>
</clipPath>
</defs>
</svg>
