<svg width="298" height="397" viewBox="0 0 298 397" fill="none" xmlns="http://www.w3.org/2000/svg">
<g clip-path="url(#clip0_22_8891)">
<path d="M375.402 722.748C366.731 719.511 357.308 718.942 348.305 717.872C311.918 713.544 276.026 703.582 238.997 706.271C217.18 707.844 195.504 711.357 173.694 713.156C164.021 713.943 158.67 707.26 155.062 698.654C151.363 689.83 148.486 677.899 135.992 680.013C120.204 682.686 115.758 695.939 114.157 710.224C113.924 712.288 113.541 714.339 113.228 716.395C111.459 715.181 109.461 714.208 107.961 712.723C84.5053 689.513 86.5688 657.43 118.837 643.644C167.723 622.766 194.723 583.53 221.638 542.01C232.509 525.236 247.554 511.157 269.269 521.585C291.705 532.352 287.502 554.634 283.37 572.931C272.303 621.892 286.023 670.552 317.213 683.879C345.344 695.9 375.958 697.62 405.174 705.138C419.128 708.726 432.394 713.861 443.744 722.748H498.685C482.594 713.972 466.597 704.986 450.141 696.986C423.411 683.997 394.052 680.288 365.408 673.807C321.894 663.961 302.08 619.632 310.762 570.838C322.162 506.763 367.534 472.141 413.681 436.575C454.117 405.423 490.144 371.026 489.421 314.233C488.967 278.436 473.414 248.739 448.813 223.843C411.769 186.335 416.485 145.117 435.349 101.21C454.132 57.5148 467.993 12.9467 450.83 -35.3879C444.01 -54.5953 428.514 -64.0561 413.715 -74.9935C387.937 -94.0593 387.22 -112.401 415.436 -127.451C450.045 -145.903 465.856 -173.428 472.877 -211.035C481.634 -257.966 520.716 -272.872 566.344 -250.801C598.432 -235.284 624.389 -209.503 657.948 -196.675C678.605 -188.78 699.065 -188.877 719.328 -196.675V-227.286C658.992 -198.275 616.821 -235.792 574.079 -270.803C548.135 -292.048 519.936 -301.517 485.967 -293.997C474.515 -291.463 453.879 -287.81 453.767 -306.734C453.65 -325.532 471.442 -324.207 485.352 -326.405H411.755C413.686 -294.361 428.055 -265.171 433.207 -233.844C440.358 -190.353 418.228 -161.132 386.836 -136.464C376.14 -128.07 365.246 -119.74 353.598 -112.816C341.196 -105.44 324.943 -97.1701 316.293 -114.269C307.355 -131.908 325.084 -139.666 337.371 -146.339C361.08 -159.212 390.69 -163.77 398.459 -196.764C406.285 -229.988 394.18 -260.5 387.88 -291.896C385.579 -303.311 384.102 -314.888 382.339 -326.408H354.164C358.093 -314.403 362.1 -302.422 365.865 -290.364C375.83 -258.452 389.237 -225.783 362.864 -195.736C345.213 -175.623 319.327 -163.965 303.674 -141.604C282.219 -110.969 259.925 -81.8183 223.663 -67.2665C215.262 -63.8987 203.314 -60.4995 203.982 -49.3469C204.713 -37.258 216.715 -32.2562 226.271 -26.9868C255.667 -10.7852 289.057 -15.7083 320.307 -9.29538C336.312 -6.00891 352.946 -1.78082 358.8 16.0365C363.266 29.6256 354.764 40.7625 344.603 47.6895C324.543 61.3928 303.749 73.9772 282.316 85.3857C230.558 112.855 184.646 146.415 158.868 201.462C151.963 216.208 146.432 232.454 155.712 248.304C160.802 256.996 170.243 260.283 180.25 258.94C198.652 256.474 213.491 245.92 228.635 236.212C260.068 216.063 290.706 191.867 329.073 189.559C370.031 187.096 400.446 215.832 433.129 235.402C460.819 251.984 477.648 277.733 472.402 311.599C462.734 373.993 424.108 416.801 373.74 450.109C357.803 460.648 339.398 470.358 320.187 460.134C302.476 450.691 304.973 431.88 308.406 416.114C315.747 382.386 303.361 362.326 274.393 343.947C237.205 320.341 236.487 300.528 266.757 273.872C288.71 254.541 314.237 234.379 344.579 239.743C391.11 247.968 415.306 284.426 415.924 335.077C416.005 341.595 414.57 350.313 423.054 353.198C425.739 354.114 430.972 351.57 433.197 349.002C442.067 338.736 445.573 326.109 446.47 312.74C448.978 275.448 423.083 258.677 395.826 244.141C374.476 232.755 355.129 213.236 328.483 217.65C293.281 223.497 269.199 251.981 237.896 266.341C210.619 278.858 206.703 296.148 225.669 319.678C234.218 330.285 244.802 339.769 255.954 347.622C299.26 378.124 304.339 399.458 275.854 438.476C261.096 458.688 241.955 476.807 231.909 499.12C208.881 550.267 177.028 587.96 122.34 607.878C63.9638 629.147 47.2598 683.142 81.7295 722.748H375.402ZM206.119 224.399C198.475 231.979 185.509 242.701 177.088 231.638C164.994 215.743 181.038 202.81 190.813 192.219C232.418 147.128 285.295 116.585 334.491 81.2389C353.937 67.2693 372.024 50.4304 377.766 25.8225C383.033 3.26562 364.604 -4.05487 349.2 -12.5294C344.608 -15.0553 336.798 -15.8211 337.609 -22.0558C337.901 -24.3193 347.561 -26.6432 352.98 -26.7271C382.482 -27.1835 401.354 -9.28491 401.354 26.7064C398.745 61.3548 371.549 89.2413 339.623 111.247C291.23 144.595 247.713 183.143 206.119 224.399ZM288.266 182.296C286.785 182.76 285.191 182.868 283.649 183.141C284.197 181.488 284.418 179.618 285.345 178.22C305.075 148.374 337.617 134.234 364.876 113.886C405.625 83.4605 429.957 25.1772 412.588 -9.24557C399.58 -35.0259 377.612 -45.7037 345.542 -45.6565C329.368 -45.8454 310.53 -39.0993 291.4 -33.6253C283.278 -31.2962 272.389 -26.4019 267.84 -35.923C263.405 -45.2054 273.634 -50.758 280.863 -54.6294C337.306 -84.8608 423.782 -76.8427 441.563 -3.08179C452.129 40.7703 432.362 77.4645 405.891 110.049C375.311 147.656 333.469 168.085 288.266 182.283V182.296Z" fill="#030119" fill-opacity="0.02"/>
<path d="M323.577 -326.408H302.378C315.649 -310.23 325.959 -292.685 328.638 -271.039C331.977 -244.083 326.17 -219.213 306.688 -200.861C272.098 -168.279 250.223 -124.162 211.507 -95.7144C182.526 -74.4218 151.338 -79.9534 121.997 -93.6449C87.128 -109.907 54.0826 -106.919 20.5989 -91.3892C18.5119 -90.4214 16.0857 -90.1932 13.8161 -89.6188C14.4239 -91.9794 14.7083 -94.4816 15.6892 -96.6717C27.3426 -122.741 73.0823 -132.962 108.011 -117.888C143.013 -102.788 178.044 -83.114 214.914 -113.692C240.065 -134.557 254.737 -163.742 274.276 -189.071C289.128 -208.325 309.756 -224.553 310.833 -251.26C312.281 -286.745 293.354 -309.81 265.247 -326.397H124.152C137.483 -321.768 150.761 -316.955 164.303 -313.092C189.953 -305.747 215.435 -317.199 241.064 -314.888C266.09 -312.627 284.594 -299.23 296.618 -277.449C304.001 -264.072 303.769 -250.192 294.807 -236.981C291.291 -231.795 286.72 -228.587 280.72 -229.5C273.575 -230.578 270.65 -236.582 269.085 -242.963C258.496 -286.241 246.128 -295.353 203.432 -283.45C175.547 -275.679 154.875 -290.314 132.403 -299.513C83.5644 -319.51 35.3124 -288.195 35.0959 -235.462C35.0411 -222.741 34.2194 -209.988 33.035 -197.32C32.2106 -188.491 30.4992 -178.348 18.4493 -180.056C7.43243 -181.63 3.37057 -191.859 3.70971 -201.105C5.58541 -252.241 15.3396 -311.646 75.0154 -326.408H30.6845C-0.122566 -287.227 -13.3048 -242.268 -8.47068 -192.528C-6.66541 -173.937 3.52969 -156.542 25.3521 -159.765C48.9929 -163.259 45.8701 -185.968 48.3746 -203.043C52.9034 -233.956 48.5233 -268.893 83.2983 -286.223C106.255 -297.666 128.185 -289.806 146.827 -275.44C162.905 -263.052 178.37 -258.436 199.204 -260.636C245.249 -265.502 261.752 -242.494 250.596 -193.787C240.404 -149.31 204.497 -111.053 172.816 -111.738C149.165 -112.262 131.803 -128.978 111.16 -137.279C70.9144 -153.468 38.4925 -135.944 7.97243 -111.575C-38.3907 -74.5555 -88.0305 -44.7437 -148.773 -39.4193C-154.411 -38.9262 -161.113 -39.7655 -162.399 -46.0394C-163.836 -53.0583 -156.86 -55.015 -151.703 -56.8431C-123.385 -66.9098 -93.7098 -73.21 -67.2568 -88.428C-27.6608 -111.213 -23.2337 -145.953 -29.9122 -187.526C-37.7907 -236.553 -26.7373 -283.183 -2.24091 -326.408H-25.5477C-44.3309 -279.293 -41.55 -229.361 -43.8952 -180.03C-45.257 -151.314 -51.4268 -123.735 -72.1874 -102.311C-115.117 -58.0077 -179.656 -59.87 -227.342 -105.445C-233.827 -111.643 -242.358 -124.16 -251.864 -116.149C-261.491 -108.045 -251.883 -97.7366 -246.023 -89.5978C-242.024 -84.0373 -238.069 -78.3692 -233.444 -73.3568C-208.879 -46.7555 -186.89 -15.5825 -144.119 -19.7476C-118.157 -22.2761 -97.8917 -38.4383 -75.5084 -49.3679C-27.04 -73.0237 21.8616 -42.5064 21.8616 11.8136C21.8616 78.9911 -46.5823 126.36 -115.579 111.851C-163.32 101.808 -205.613 77.1813 -253.004 67.2012C-279.684 61.5829 -311.804 79.9169 -318.443 106.728C-324.015 129.188 -308.47 148.191 -279.88 155.941C-239.324 166.958 -201.518 182.433 -174.809 218.169C-146.728 255.755 -136.695 257.041 -97.0047 229.262C-64.0324 206.18 -30.1418 195.689 9.61599 210.275C45.9745 223.612 61.0741 213.813 61.4211 174.968C61.8671 125.109 84.7175 93.0865 129.982 75.4239C168.918 60.2321 189.306 23.2783 179.531 -16.7129C174.313 -38.0449 157.304 -46.3988 137.443 -41.8454C119.719 -37.7852 126.226 -21.8354 128.707 -10.1557C135.456 21.5524 133.095 49.8822 104.14 70.4588C85.8184 83.4788 68.4908 97.5191 59.7906 119.481C53.1695 136.215 46.1154 152.875 33.5515 166.089C5.82803 195.251 -31.6314 190.346 -66.4351 193.871C-140.6 201.38 -201.901 166.084 -263.398 132.233C-275.375 125.639 -289.686 116.197 -280.094 100.292C-271 85.2073 -255.149 90.2669 -242.692 97.7867C-201.165 122.848 -160.831 149.237 -111.695 158.9C-69.7169 167.146 -27.2095 156.733 -7.72715 129.998C29.7609 78.5609 39.4917 20.3616 37.4595 -41.612C36.2177 -79.6229 57.9514 -96.7819 93.809 -84.6904C151.246 -65.3256 203.639 -66.6659 247.038 -114.961C269.515 -139.963 287.083 -169.494 314.564 -189.863C338.578 -207.665 349.767 -230.392 345.086 -260.878C341.557 -284.075 332.001 -305.005 323.577 -326.408Z" fill="#030119" fill-opacity="0.02"/>
<path d="M318.863 23.0367C318.341 20.3351 313.338 17.2663 309.938 16.5844C281.398 10.9452 251.697 11.9419 224.177 0.117896C214.384 -4.09184 209.443 3.1211 208.658 11.955C204.846 54.8628 185.938 85.5139 143.574 100.22C118.832 108.808 94.242 121.311 88.4245 150.055C84.3574 170.157 85.907 191.471 85.5313 212.255C85.0487 238.796 71.2926 251.43 45.8545 246.496C23.3511 242.129 1.3148 233.261 -21.272 231.808C-69.8318 228.661 -99.4049 261.769 -126.52 295.668C-139.366 311.725 -137.154 329.802 -120.883 343.821C-110.135 353.083 -98.6327 349.71 -88.4219 342.379C-76.2337 333.629 -65.929 320.986 -52.5904 315.297C16.7327 285.716 84.0443 299.877 145.888 335.195C200.964 366.643 212.967 409.451 187.889 451.68C164.671 490.761 124.757 502.039 85.6722 515.227C33.408 532.85 -12.4335 557.474 -26.5678 618.094C-34.1959 650.799 -50.5686 678.316 -86.8801 684.005C-119.696 689.148 -140.48 667.265 -161.035 645.695C-178.414 627.458 -194.534 606.908 -219.119 597.84C-262.031 582.016 -293.889 603.611 -324.182 629.467V667.142C-315.2 653.954 -306.93 640.179 -293.399 630.794C-253.315 602.992 -219.075 609.575 -188.818 649.06C-168.305 675.834 -146.269 701.434 -119.946 722.763H-21.465C-36.0559 661.036 -8.58291 613.389 33.2697 571.819C59.994 545.275 97.0517 535.513 129.429 518.125C172.367 495.068 208.582 465.455 218.169 413.871C225.2 376.043 198.517 357.631 173.191 338.544C154.86 324.729 131.451 315.111 127.407 288.25C126.766 283.98 129.074 279.259 130.016 274.747C132.132 275.768 134.801 276.287 136.256 277.895C139.583 281.598 142.15 285.981 145.317 289.842C165.308 314.214 190.889 332.223 215.034 351.881C248.045 378.756 247.03 411.248 220.663 457.946C186.157 519.059 128.743 549.461 71.457 580.996C29.3409 604.18 -9.8586 669.579 13.2813 722.75H45.9771C16.5214 661.089 49.2876 596.169 109.811 575.498C136.447 566.402 165.764 561.859 184.005 536.318C205.245 506.59 216.703 470.745 242.225 443.578C254.309 430.725 267.222 416.979 265.13 397.239C262.365 371.157 239.637 360.605 222.761 345.857C191.542 318.579 153.566 295.988 140.47 254.118C122.819 197.687 152.702 154.596 188.033 115.202C221.425 77.9574 268.576 61.9577 309.91 36.9905C314.968 33.9374 320.136 29.531 318.863 23.0367ZM149.199 145.712C132.121 176.79 126.074 210.657 120.917 245.313C114.804 286.393 84.4696 305.548 44.2188 288.924C-9.12292 266.892 -53.4956 272.977 -93.1516 315.153C-97.6361 319.924 -106.978 326.89 -110.857 319.979C-117.565 308.035 -107.156 297.91 -99.7336 289.291C-61.8881 245.327 -17.3275 238.085 35.6463 260.914C55.9948 269.683 84.3756 281.898 96.8091 248.167C103.161 230.937 102.514 211.093 105.032 192.428C106.104 170.099 104.711 146.682 122.612 129.447C130.196 122.145 140.417 115.069 150.187 121.416C159.777 127.632 153.406 138.048 149.199 145.712Z" fill="#030119" fill-opacity="0.02"/>
<path d="M164.856 411.227C157.852 404.444 148.742 422.697 141.448 430.545C125.751 447.431 107.573 457.198 84.9156 447.761C63.6697 438.914 43.0395 433.703 20.5284 442.445C-25.8087 460.438 -65.5012 492.77 -116.352 501.822C-159.835 509.562 -209.746 485.515 -223.267 443.268C-233.874 410.152 -225.237 374.811 -233.491 341.238C-246.689 287.584 -271.485 243.021 -324.182 219.94V244.857C-284.359 264.503 -266.267 300.935 -256.25 341.432C-242.705 396.208 -234.902 452.433 -252.582 507.542C-263.429 541.354 -291.953 558.911 -324.182 569.967V591.454C-250.171 535.914 -191.834 554.161 -137.01 617.682C-108.053 651.229 -77.8981 651.353 -61.6481 610.186C-37.3395 548.598 0.328651 503.849 65.415 485.103C96.5769 476.13 131.613 475.551 155.22 448.226C164.47 437.516 175.978 421.997 164.856 411.227ZM47.3283 473.106C4.54441 495.71 -28.6914 531.877 -70.0666 556.37C-84.827 565.109 -101.111 569.413 -120.416 569.516C-148.246 568.443 -175.054 557.734 -199.592 541.165C-204.836 537.624 -212.114 532.302 -207.86 524.211C-202.248 513.522 -191.836 514.711 -182.964 518.372C-116.92 545.626 -65.0473 514.175 -13.6544 478.415C3.66004 466.35 21.6163 454.219 44.6361 456.133C49.5119 456.54 53.9416 458.78 53.9103 462.741C53.8764 466.292 50.5841 471.388 47.3283 473.106Z" fill="#030119" fill-opacity="0.02"/>
<path d="M117.862 349.838C67.9455 328.422 15.1934 336.157 -36.6769 340.21C-47.2372 341.033 -58.3297 350.861 -56.2583 363.674C-54.8861 372.157 -43.4753 370.848 -36.7812 369.216C0.785194 360.057 38.6124 354.36 77.1623 360.495C88.5888 362.313 106.18 360.959 106.141 377.321C106.099 394.354 89.4236 393.058 77.4623 391.996C42.0925 388.849 7.23145 384.969 -27.7731 397.163C-101.176 422.734 -144.338 403.849 -162.576 327.919C-184.12 238.232 -238.687 191.529 -324.182 174.894V189.202C-323.602 189.286 -323.029 189.415 -322.468 189.588C-250.406 212.669 -192.875 298.259 -189.22 386.181C-188.049 414.296 -182.789 442.397 -155.859 457.891C-125.049 475.616 -96.1804 462.224 -70.1787 445.611C-22.0077 414.836 24.7494 385.664 86.0739 410.849C102.694 417.669 124.133 409.774 133.113 390.252C140.843 373.444 133.298 356.461 117.862 349.838Z" fill="#030119" fill-opacity="0.02"/>
<path d="M-14.1892 -22.297C-27.3243 -41.5385 -54.8626 -43.9043 -78.8373 -26.8005C-98.4031 -12.8519 -114.726 6.45776 -141.083 8.181C-182.424 10.8826 -208.843 -14.7667 -234.999 -41.2815C-270.567 -77.3278 -280.957 -79.4733 -324.182 -57.2548V-22.1527C-283.185 -42.6112 -252.702 -16.3824 -220.043 2.80145C-162.034 36.8361 -124.642 32.7837 -68.0239 -11.1733C-60.1167 -17.3135 -49.3659 -25.8982 -41.2396 -16.5843C-31.4045 -5.30591 -39.8048 7.51215 -48.5155 16.1283C-87.5949 54.7819 -135.085 55.7733 -185.134 46.1604C-218.728 39.7081 -245.567 16.9598 -278.323 8.91539C-295.147 4.76598 -309.865 10.5206 -324.182 18.0693V50.3151C-308.193 37.219 -290.354 26.5543 -269.382 33.0224C-235.88 43.3566 -204.006 59.2513 -170.304 68.6674C-123.586 81.7242 -75.8972 91.7489 -31.2558 59.8414C-6.17239 41.9218 2.4705 2.10899 -14.1892 -22.297Z" fill="#030119" fill-opacity="0.02"/>
<path d="M385.967 341.776C383.535 361.447 385.088 388.007 357.857 398.643C340.36 405.462 344.292 388.802 342.951 379.758C339.358 355.591 325.185 338.893 306.368 325.094C299.452 320.021 288.151 316.176 290.102 306.091C292.781 292.258 305.883 286.31 317.755 281.977C359.861 266.627 385.967 288.282 385.967 341.776Z" fill="#030119" fill-opacity="0.02"/>
<path d="M103.935 12.3671C104.752 33.7856 98.5167 50.74 75.6299 56.7752C61.4825 60.5076 58.8215 50.3177 59.0433 40.5133C59.685 11.8032 61.2033 -16.9017 63.113 -45.5568C63.5826 -52.5993 65.7218 -61.3361 74.7925 -61.7846C87.8077 -62.4272 90.8965 -50.7685 94.374 -41.6592C100.944 -24.4242 104.189 -6.0887 103.935 12.3671Z" fill="#030119" fill-opacity="0.02"/>
</g>
<defs>
<clipPath id="clip0_22_8891">
<rect x="0.151123" width="394.849" height="396.348" rx="197.424" fill="white"/>
</clipPath>
</defs>
</svg>
