<svg width="126" height="42" viewBox="0 0 126 42" fill="none" xmlns="http://www.w3.org/2000/svg">
<g clip-path="url(#clip0_22_8932)">
<path d="M39.3131 77.972C38.3713 77.6205 37.3479 77.5587 36.3702 77.4424C32.4183 76.9724 28.5202 75.8905 24.4986 76.1825C22.1292 76.3534 19.775 76.7348 17.4063 76.9303C16.3558 77.0157 15.7746 76.2899 15.3828 75.3552C14.981 74.397 14.6685 73.1011 13.3117 73.3307C11.597 73.621 11.1142 75.0604 10.9402 76.6118C10.915 76.836 10.8733 77.0587 10.8393 77.2821C10.6472 77.1502 10.4302 77.0445 10.2673 76.8833C7.71987 74.3625 7.94399 70.8781 11.4485 69.3808C16.7578 67.1133 19.6903 62.8521 22.6134 58.3427C23.794 56.521 25.428 54.9919 27.7864 56.1245C30.223 57.2938 29.7666 59.7138 29.3178 61.701C28.1159 67.0185 29.6059 72.3032 32.9934 73.7506C36.0486 75.0561 39.3735 75.243 42.5465 76.0594C44.062 76.4491 45.5027 77.0069 46.7355 77.972H52.7024C50.9548 77.0188 49.2174 76.0429 47.4302 75.1741C44.5272 73.7634 41.3386 73.3606 38.2277 72.6567C33.5017 71.5874 31.3498 66.7729 32.2928 61.4736C33.5309 54.5147 38.4586 50.7545 43.4704 46.8918C47.862 43.5085 51.7748 39.7728 51.6963 33.6047C51.647 29.7169 49.9578 26.4917 47.286 23.7878C43.2627 19.7142 43.775 15.2376 45.8237 10.469C47.8637 5.72352 49.369 0.883148 47.505 -4.36629C46.7644 -6.45234 45.0814 -7.47984 43.4741 -8.66772C40.6745 -10.7384 40.5966 -12.7304 43.6611 -14.365C47.4197 -16.369 49.137 -19.3583 49.8994 -23.4427C50.8506 -28.5397 55.0951 -30.1586 60.0506 -27.7615C63.5355 -26.0762 66.3546 -23.2763 69.9994 -21.883C72.2428 -21.0256 74.465 -21.0361 76.6656 -21.883V-25.2077C70.1127 -22.0568 65.5327 -26.1315 60.8906 -29.9338C58.0729 -32.2412 55.0104 -33.2696 51.3212 -32.4529C50.0774 -32.1777 47.8362 -31.7809 47.824 -33.8361C47.8113 -35.8778 49.7436 -35.7339 51.2543 -35.9726H43.2613C43.471 -32.4925 45.0315 -29.3222 45.5911 -25.9198C46.3677 -21.1965 43.9642 -18.0229 40.5549 -15.3437C39.3933 -14.4322 38.2101 -13.5275 36.945 -12.7754C35.5981 -11.9744 33.8329 -11.0762 32.8934 -12.9332C31.9227 -14.8489 33.8482 -15.6916 35.1827 -16.4163C37.7576 -17.8144 40.9734 -18.3094 41.8172 -21.8927C42.6672 -25.5011 41.3525 -28.8149 40.6683 -32.2247C40.4184 -33.4644 40.258 -34.7218 40.0665 -35.9729H37.0065C37.4332 -34.6691 37.8684 -33.3678 38.2772 -32.0583C39.3596 -28.5924 40.8156 -25.0444 37.9514 -21.7811C36.0344 -19.5967 33.2229 -18.3305 31.523 -15.9021C29.1929 -12.5749 26.7715 -9.40893 22.8332 -7.82851C21.9209 -7.46275 20.6233 -7.09357 20.6958 -5.88233C20.7751 -4.5694 22.0787 -4.02617 23.1166 -3.45388C26.3091 -1.69429 29.9355 -2.22897 33.3295 -1.53249C35.0677 -1.17555 36.8742 -0.716358 37.51 1.21871C37.9951 2.69458 37.0717 3.90411 35.9681 4.65643C33.7895 6.1447 31.5312 7.51144 29.2033 8.75047C23.5821 11.7338 18.5958 15.3786 15.7962 21.3571C15.0462 22.9585 14.4455 24.723 15.4534 26.4444C16.0061 27.3884 17.0315 27.7454 18.1183 27.5995C20.117 27.3317 21.7285 26.1855 23.3733 25.1312C26.7871 22.9429 30.1145 20.315 34.2815 20.0643C38.7297 19.7969 42.0331 22.9178 45.5826 25.0432C48.5899 26.8441 50.4176 29.6406 49.8479 33.3187C48.7978 40.095 44.6029 44.7442 39.1326 48.3617C37.4018 49.5063 35.4029 50.5608 33.3164 49.4504C31.3929 48.4249 31.6641 46.3819 32.0369 44.6696C32.8342 41.0066 31.489 38.8279 28.3429 36.8319C24.304 34.2682 24.2261 32.1163 27.5136 29.2212C29.8978 27.1218 32.6702 24.9321 35.9656 25.5146C41.019 26.4079 43.6469 30.3675 43.7141 35.8685C43.7228 36.5764 43.567 37.5233 44.4884 37.8366C44.7799 37.936 45.3483 37.6597 45.59 37.3808C46.5533 36.2659 46.9341 34.8946 47.0316 33.4426C47.3038 29.3924 44.4915 27.571 41.5313 25.9923C39.2125 24.7557 37.1113 22.6358 34.2174 23.1152C30.3942 23.7502 27.7788 26.8438 24.3791 28.4034C21.4166 29.7628 20.9913 31.6406 23.0511 34.1961C23.9796 35.3481 25.1291 36.3781 26.3403 37.231C31.0436 40.5437 31.5952 42.8607 28.5015 47.0983C26.8987 49.2935 24.8199 51.2613 23.7288 53.6846C21.2279 59.2394 17.7684 63.3332 11.829 65.4965C5.48893 67.8064 3.67477 73.6706 7.41841 77.972H39.3131ZM20.9278 23.8482C20.0977 24.6714 18.6895 25.8359 17.775 24.6344C16.4614 22.9081 18.2039 21.5035 19.2656 20.3532C23.7841 15.4561 29.5269 12.1389 34.8699 8.3001C36.9819 6.78292 38.9462 4.95411 39.5698 2.28154C40.1418 -0.168282 38.1404 -0.963333 36.4673 -1.88372C35.9687 -2.15805 35.1204 -2.24122 35.2085 -2.91834C35.2402 -3.16418 36.2894 -3.41656 36.8779 -3.42568C40.0821 -3.47525 42.1317 -1.53135 42.1317 2.37753C41.8483 6.14056 38.8946 9.16922 35.4272 11.5592C30.1715 15.181 25.4453 19.3676 20.9278 23.8482ZM29.8496 19.2756C29.6887 19.326 29.5156 19.3377 29.3481 19.3673C29.4076 19.1878 29.4317 18.9847 29.5323 18.8329C31.6751 15.5914 35.2094 14.0557 38.1699 11.8458C42.5955 8.54138 45.2381 2.21146 43.3517 -1.52707C41.939 -4.32699 39.5531 -5.48666 36.0701 -5.48153C34.3135 -5.50204 32.2675 -4.76937 30.1899 -4.17487C29.3079 -3.92191 28.1253 -3.39036 27.6311 -4.42441C27.1495 -5.43254 28.2604 -6.03559 29.0455 -6.45604C35.1756 -9.73937 44.5674 -8.86854 46.4986 -0.857647C47.6461 3.90496 45.4993 7.89019 42.6244 11.429C39.3032 15.5134 34.7589 17.7322 29.8496 19.2741V19.2756Z" fill="#030119"/>
<path d="M33.6847 -35.9729H31.3823C32.8236 -34.2159 33.9433 -32.3104 34.2343 -29.9595C34.597 -27.0319 33.9663 -24.3309 31.8504 -22.3377C28.0937 -18.7991 25.718 -14.0077 21.5131 -10.9181C18.3656 -8.60562 14.9784 -9.20639 11.7918 -10.6934C8.0048 -12.4595 4.41586 -12.1351 0.779324 -10.4484C0.552662 -10.3433 0.289165 -10.3185 0.0426674 -10.2561C0.108685 -10.5125 0.139568 -10.7842 0.246101 -11.0221C1.51173 -13.8533 6.47935 -14.9635 10.2728 -13.3264C14.0743 -11.6864 17.8788 -9.54965 21.8831 -12.8706C24.6147 -15.1367 26.2082 -18.3063 28.3303 -21.0572C29.9433 -23.1484 32.1836 -24.9108 32.3006 -27.8113C32.4578 -31.6652 30.4023 -34.1703 27.3497 -35.9718H12.0258C13.4736 -35.469 14.9158 -34.9463 16.3865 -34.5267C19.1722 -33.729 21.9398 -34.9727 24.7232 -34.7218C27.4412 -34.4762 29.4509 -33.0212 30.7567 -30.6557C31.5585 -29.2029 31.5333 -27.6954 30.5601 -26.2605C30.1782 -25.6973 29.6818 -25.349 29.0301 -25.4481C28.2541 -25.5652 27.9365 -26.2172 27.7665 -26.9103C26.6164 -31.6105 25.2732 -32.6001 20.6362 -31.3074C17.6077 -30.4634 15.3626 -32.0529 12.922 -33.0519C7.61777 -35.2237 2.3773 -31.8227 2.35379 -26.0956C2.34784 -24.714 2.25859 -23.329 2.12996 -21.9531C2.04043 -20.9943 1.85456 -19.8927 0.54586 -20.0782C-0.650639 -20.2491 -1.09178 -21.36 -1.05495 -22.3642C-0.851234 -27.9179 0.208134 -34.3697 6.6893 -35.9729H1.87468C-1.47116 -31.7176 -2.90283 -26.8348 -2.37782 -21.4327C-2.18176 -19.4136 -1.0745 -17.5244 1.29555 -17.8745C3.86308 -18.2539 3.52394 -20.7202 3.79593 -22.5747C4.2878 -25.9321 3.81208 -29.7264 7.58887 -31.6085C10.0822 -32.8514 12.4638 -31.9976 14.4885 -30.4375C16.2347 -29.0921 17.9142 -28.5907 20.1769 -28.8297C25.1777 -29.3581 26.97 -26.8593 25.7585 -21.5694C24.6515 -16.739 20.7518 -12.584 17.311 -12.6583C14.7424 -12.7153 12.8568 -14.5308 10.6148 -15.4323C6.2439 -17.1905 2.72268 -15.2873 -0.591991 -12.6407C-5.62732 -8.62014 -11.0185 -5.3824 -17.6156 -4.80413C-18.2278 -4.75057 -18.9557 -4.84173 -19.0954 -5.52312C-19.2515 -6.28541 -18.4939 -6.49792 -17.9337 -6.69647C-14.8582 -7.78977 -11.6353 -8.47401 -8.76237 -10.1268C-4.46199 -12.6014 -3.98118 -16.3744 -4.7065 -20.8894C-5.56216 -26.2141 -4.36169 -31.2784 -1.70123 -35.9729H-4.23249C-6.27246 -30.8559 -5.97043 -25.433 -6.22515 -20.0753C-6.37304 -16.9566 -7.04312 -13.9613 -9.29786 -11.6346C-13.9603 -6.82295 -20.9696 -7.0252 -26.1486 -11.975C-26.853 -12.6481 -27.7794 -14.0075 -28.8119 -13.1375C-29.8574 -12.2573 -28.8139 -11.1378 -28.1775 -10.2538C-27.7432 -9.64992 -27.3136 -9.03433 -26.8113 -8.48996C-24.1435 -5.60089 -21.7553 -2.2153 -17.1101 -2.66766C-14.2904 -2.94227 -12.0895 -4.69759 -9.65854 -5.88461C-4.39456 -8.45378 0.916454 -5.13941 0.916454 0.760086C0.916454 8.05598 -6.51698 13.2006 -14.0105 11.6247C-19.1954 10.534 -23.7887 7.85942 -28.9357 6.77552C-31.8333 6.16535 -35.3217 8.15653 -36.0428 11.0684C-36.6479 13.5077 -34.9596 15.5715 -31.8546 16.4133C-27.4499 17.6097 -23.3439 19.2904 -20.4432 23.1716C-17.3934 27.2537 -16.3037 27.3933 -11.9932 24.3763C-8.41217 21.8695 -4.73143 20.7301 -0.41349 22.3142C3.53527 23.7627 5.17518 22.6985 5.21286 18.4797C5.26131 13.0647 7.743 9.58683 12.659 7.66856C16.8877 6.01864 19.102 2.00522 18.0403 -2.33808C17.4737 -4.65486 15.6264 -5.56215 13.4694 -5.06763C11.5444 -4.62666 12.2511 -2.89441 12.5205 -1.62592C13.2535 1.81778 12.9971 4.89457 9.85239 7.12932C7.86256 8.54338 5.98069 10.0682 5.03579 12.4534C4.3167 14.2708 3.55057 16.0803 2.18606 17.5154C-0.824886 20.6825 -4.89322 20.1498 -8.67311 20.5327C-16.7279 21.3482 -23.3856 17.5148 -30.0645 13.8384C-31.3653 13.1222 -32.9196 12.0967 -31.8778 10.3693C-30.8901 8.7311 -29.1686 9.2806 -27.8157 10.0973C-23.3057 12.8192 -18.9251 15.6852 -13.5886 16.7346C-9.02954 17.6302 -4.41297 16.4993 -2.29707 13.5957C1.77438 8.00926 2.8312 1.68845 2.61049 -5.04227C2.47562 -9.1705 4.83604 -11.0341 8.7304 -9.72085C14.9685 -7.61771 20.6586 -7.76328 25.3721 -13.0084C27.8132 -15.7238 29.7212 -18.931 32.7057 -21.1433C35.3138 -23.0766 36.529 -25.5449 36.0207 -28.8559C35.6374 -31.3752 34.5995 -33.6484 33.6847 -35.9729Z" fill="#030119"/>
<path d="M41.6294 68.8302C47.0552 70.714 51.546 74.3531 56.689 76.7493C57.6053 77.1766 58.5343 77.5754 59.4633 77.9742H63.2959C63.0976 77.9458 62.9041 77.9079 62.7179 77.8711C58.0898 76.9553 54.4235 74.4243 51.191 71.0316C46.006 65.5907 47.1323 53.6493 53.2553 49.3476C56.6567 46.9579 59.9634 44.4232 63.2081 41.8215C64.1643 41.0547 65.0534 39.5141 63.9306 38.5655C62.7664 37.5833 62.2791 39.3136 61.586 40.0269C60.3232 41.3267 59.1729 42.8032 57.7163 43.8344C52.092 47.8147 47.0243 52.1572 45.6326 59.4448C45.387 60.7318 44.8291 62.0695 43.2005 61.6328C41.9394 61.2947 41.8669 60.0026 42.0955 58.8896C43.3422 52.7993 47.3686 48.6998 51.9497 44.9821C54.5617 42.8601 57.7396 41.233 58.9862 37.8064C60.0161 34.9806 58.5516 32.2305 58.4213 29.4272C58.3136 27.1084 58.757 24.5449 57.2528 22.5842C56.132 21.1226 54.1722 20.2988 53.104 18.8132C50.2359 14.8251 51.2159 10.3274 52.2934 6.06818C53.4797 1.37849 54.5377 -3.19525 53.4202 -8.08064C52.3773 -12.6427 52.4413 -17.217 54.5266 -21.5617C54.8896 -22.3175 55.4556 -23.0202 56.4017 -22.8188C57.3797 -22.6106 57.5067 -21.7364 57.5024 -20.8798C57.4854 -17.3546 56.434 -13.9195 56.7941 -10.3399C57.1324 -6.97851 59.3653 -4.50391 61.9107 -5.11238C66.3341 -6.1695 71.2156 -3.85272 72.7906 0.40056C74.3546 4.62136 73.4813 9.23129 74.4319 13.5814C74.8799 15.6324 75.181 17.7404 76.6648 19.3316V12.6374C75.8432 10.387 75.6449 7.9987 75.5961 5.65001C75.4454 -1.74587 72.1154 -6.5176 65.0087 -8.76403C60.4598 -10.2012 58.914 -13.276 59.1973 -19.4711C59.2979 -21.6743 60.0189 -24.2731 57.0658 -24.8864C54.3362 -25.4532 53.6063 -22.9052 52.7991 -20.9536C51.6587 -18.1961 49.9276 -15.9172 47.9117 -13.7446C45.8672 -11.5411 48.0231 -9.9388 49.1561 -8.33075C52.913 -3.00012 52.352 2.77888 49.8899 8.0964C47.0459 14.2383 48.2724 18.8004 52.6884 23.5225C57.1599 28.3042 57.7197 35.7981 54.3376 40.3744C51.697 43.9477 47.5791 45.9913 44.4999 49.1442C40.8327 52.8992 36.5162 56.3338 35.8447 62.0123C35.3662 66.073 38.4383 67.7223 41.6294 68.8302Z" fill="#030119"/>
<path d="M33.1726 1.97906C33.116 1.68565 32.5725 1.35236 32.2033 1.2783C29.1037 0.665844 25.878 0.774095 22.8892 -0.510064C21.8256 -0.967268 21.2889 -0.183897 21.2036 0.775519C20.7897 5.43558 18.7361 8.76448 14.1351 10.3617C11.448 11.2943 8.77737 12.6523 8.14555 15.7741C7.70384 17.9573 7.87214 20.2721 7.83134 22.5293C7.77892 25.4118 6.28492 26.784 3.52218 26.2482C1.07818 25.7739 -1.31511 24.8108 -3.76818 24.653C-9.04207 24.3111 -12.2539 27.9069 -15.1988 31.5885C-16.5939 33.3324 -16.3537 35.2957 -14.5865 36.8183C-13.4192 37.8241 -12.17 37.4578 -11.0611 36.6616C-9.73736 35.7113 -8.61821 34.3383 -7.16955 33.7204C0.359367 30.5077 7.66984 32.0457 14.3864 35.8814C20.3681 39.2969 21.6717 43.9461 18.9481 48.5324C16.4264 52.7768 12.0915 54.0017 7.84664 55.434C2.17041 57.348 -2.80826 60.0223 -4.34334 66.606C-5.17179 70.158 -6.94997 73.1465 -10.8936 73.7643C-14.4576 74.323 -16.7149 71.9463 -18.9473 69.6036C-20.8348 67.623 -22.5855 65.3911 -25.2556 64.4063C-29.9161 62.6878 -33.3761 65.033 -36.6661 67.8412V71.933C-35.6906 70.5007 -34.7925 69.0046 -33.3228 67.9853C-28.9695 64.9658 -25.2508 65.6808 -21.9647 69.9691C-19.7369 72.877 -17.3436 75.6572 -14.4848 77.9737H-3.78914C-5.3738 71.2698 -2.39006 66.095 2.1554 61.5802C5.05782 58.6974 9.08252 57.6371 12.5989 55.7488C17.2622 53.2446 21.1954 50.0285 22.2367 44.4261C23.0002 40.3178 20.1023 38.3181 17.3518 36.2451C15.3608 34.7448 12.8185 33.7002 12.3793 30.7829C12.3096 30.3191 12.5604 29.8064 12.6627 29.3164C12.8925 29.4272 13.1823 29.4836 13.3404 29.6583C13.7016 30.0605 13.9804 30.5365 14.3244 30.9558C16.4956 33.6028 19.2739 35.5586 21.8961 37.6937C25.4813 40.6124 25.3711 44.1412 22.5075 49.2129C18.7599 55.8502 12.5244 59.152 6.30277 62.5769C1.7287 65.0948 -2.52861 72.1976 -0.0154762 77.9723H3.5355C0.336422 71.2755 3.89504 64.2249 10.4683 61.9799C13.3611 60.992 16.5451 60.4986 18.5262 57.7246C20.833 54.496 22.0774 50.603 24.8492 47.6524C26.1616 46.2566 27.5641 44.7637 27.3369 42.6198C27.0365 39.7871 24.5682 38.6411 22.7353 37.0393C19.3447 34.0768 15.2203 31.6232 13.798 27.076C11.881 20.9472 15.1265 16.2672 18.9636 11.9888C22.5903 7.94379 27.7112 6.20613 32.2002 3.49453C32.7496 3.16295 33.3109 2.68438 33.1726 1.97906ZM14.746 15.3024C12.8913 18.6777 12.2346 22.3558 11.6744 26.1197C11.0106 30.5812 7.71602 32.6616 3.34453 30.8561C-2.44871 28.4633 -7.26786 29.1241 -11.5748 33.7047C-12.0618 34.2229 -13.0764 34.9795 -13.4977 34.2289C-14.2262 32.9316 -13.0957 31.832 -12.2896 30.896C-8.17933 26.1211 -3.33978 25.3346 2.41351 27.8141C4.62348 28.7664 7.70582 30.093 9.05617 26.4296C9.74608 24.5584 9.67581 22.4031 9.94923 20.376C10.0657 17.951 9.91438 15.4077 11.8586 13.5359C12.6822 12.7429 13.7923 11.9743 14.8534 12.6637C15.8949 13.3388 15.203 14.47 14.746 15.3024Z" fill="#030119"/>
<path d="M16.4465 44.1389C15.6858 43.4022 14.6964 45.3846 13.9042 46.2369C12.1994 48.0708 10.2252 49.1317 7.76447 48.1067C5.45703 47.1459 3.21646 46.5799 0.771606 47.5293C-4.26089 49.4835 -8.57175 52.995 -14.0944 53.978C-18.8169 54.8187 -24.2376 52.207 -25.7061 47.6188C-26.8581 44.0221 -25.92 40.1839 -26.8165 36.5376C-28.2498 30.7105 -30.9429 25.8707 -36.6661 23.3639V26.0701C-32.3411 28.2037 -30.3762 32.1604 -29.2882 36.5587C-27.8172 42.5078 -26.9698 48.6141 -28.8899 54.5993C-30.068 58.2715 -33.1659 60.1783 -36.6661 61.379V63.7126C-28.6281 57.6807 -22.2923 59.6625 -16.3381 66.5613C-13.1931 70.2046 -9.91813 70.218 -8.15327 65.7471C-5.51321 59.0583 -1.42221 54.1982 5.64658 52.1623C9.03095 51.1878 12.8361 51.1249 15.3999 48.1572C16.4046 46.9941 17.6544 45.3085 16.4465 44.1389ZM3.68225 50.8594C-0.964352 53.3143 -4.57397 57.2423 -9.06758 59.9023C-10.6707 60.8515 -12.4392 61.3189 -14.5358 61.33C-17.5584 61.2135 -20.4699 60.0504 -23.1349 58.251C-23.7044 57.8664 -24.4949 57.2884 -24.0328 56.4096C-23.4233 55.2488 -22.2925 55.3778 -21.3289 55.7755C-14.1562 58.7355 -8.52245 55.3197 -2.94086 51.4359C-1.0604 50.1256 0.889759 48.8081 3.38986 49.016C3.9194 49.0602 4.40049 49.3034 4.39709 49.7336C4.39341 50.1193 4.03585 50.6728 3.68225 50.8594Z" fill="#030119"/>
<path d="M11.3426 37.4717C5.92141 35.1458 0.1922 35.9859 -5.44124 36.426C-6.58816 36.5154 -7.79287 37.5828 -7.56791 38.9744C-7.41888 39.8956 -6.17959 39.7534 -5.45257 39.5763C-1.37262 38.5815 2.73565 37.9628 6.92241 38.6291C8.16339 38.8265 10.0739 38.6795 10.0696 40.4565C10.0651 42.3064 8.25406 42.1657 6.95499 42.0503C3.11361 41.7085 -0.67252 41.2871 -4.47424 42.6115C-12.4463 45.3886 -17.134 43.3376 -19.1147 35.0911C-21.4545 25.3505 -27.3809 20.2783 -36.6661 18.4717V20.0256C-36.6031 20.0348 -36.5409 20.0488 -36.48 20.0675C-28.6536 22.5743 -22.4053 31.8699 -22.0084 41.4188C-21.8812 44.4722 -21.31 47.5242 -18.3851 49.2069C-15.039 51.132 -11.9037 49.6775 -9.07976 47.8732C-3.84808 44.5309 1.23004 41.3626 7.89027 44.0979C9.69536 44.8385 12.0238 43.9811 12.999 41.8609C13.8385 40.0355 13.0191 38.191 11.3426 37.4717Z" fill="#030119"/>
<path d="M40.4605 36.5961C40.1965 38.7325 40.365 41.617 37.4076 42.7722C35.5074 43.5128 35.9343 41.7034 35.7887 40.7211C35.3986 38.0964 33.8592 36.283 31.8156 34.7843C31.0645 34.2334 29.8371 33.8158 30.049 32.7205C30.34 31.2181 31.7629 30.5721 33.0523 30.1015C37.6252 28.4345 40.4605 30.7863 40.4605 36.5961Z" fill="#030119"/>
<path d="M9.83 0.820142C9.91868 3.14633 9.24153 4.98768 6.75588 5.64315C5.21938 6.0485 4.93038 4.94182 4.95447 3.877C5.02416 0.758898 5.18906 -2.35864 5.39646 -5.47076C5.44746 -6.23561 5.67979 -7.18449 6.66493 -7.2332C8.07846 -7.30299 8.41392 -6.03678 8.7916 -5.04745C9.50517 -3.17562 9.85758 -1.18427 9.83 0.820142Z" fill="#030119"/>
</g>
<path d="M64.912 30H53.776V12.768H57.424V26.712H64.912V30ZM70.7526 14.208C70.7526 15.336 69.8406 16.176 68.5206 16.176C67.2246 16.176 66.3126 15.336 66.3126 14.208C66.3126 13.032 67.2246 12.192 68.5206 12.192C69.8406 12.192 70.7526 13.032 70.7526 14.208ZM70.2246 30H66.8886V17.184H70.2246V30ZM76.2893 23.016V30H72.9533V17.184H76.0253V19.008C76.9613 17.736 78.2813 16.944 79.9613 16.944C82.5293 16.944 84.3053 18.624 84.3053 21.72V30H80.9933V22.848C80.9933 20.952 80.2493 19.896 78.7373 19.896C77.4173 19.896 76.2893 20.952 76.2893 23.016ZM99.7319 23.592C99.7319 27.384 97.4999 30.24 94.0439 30.24C92.5319 30.24 91.2359 29.592 90.2759 28.344V34.632H86.9399V17.184H90.0119V19.056C90.9959 17.688 92.4119 16.944 94.0439 16.944C97.4999 16.944 99.7319 19.824 99.7319 23.592ZM96.2999 23.592C96.2999 21.192 94.9319 19.896 93.2999 19.896C91.6679 19.896 90.2999 21.168 90.2999 23.592C90.2999 26.016 91.6679 27.264 93.2999 27.264C94.9319 27.264 96.2999 26.04 96.2999 23.592ZM109.262 30V28.416C108.422 29.616 107.15 30.24 105.398 30.24C102.734 30.24 100.958 28.68 100.958 26.28C100.958 23.784 102.974 22.44 106.718 22.44C107.438 22.44 108.062 22.488 108.854 22.584V21.816C108.854 20.376 108.038 19.536 106.646 19.536C105.206 19.536 104.342 20.376 104.222 21.816H101.222C101.414 18.864 103.55 16.944 106.646 16.944C110.006 16.944 111.974 18.792 111.974 21.936V30H109.262ZM104.102 26.184C104.102 27.264 104.87 27.936 106.118 27.936C107.822 27.936 108.854 27 108.854 25.512V24.6C108.062 24.48 107.51 24.432 106.934 24.432C105.038 24.432 104.102 25.032 104.102 26.184ZM125.707 17.184L119.467 34.632H115.843L117.667 29.856L112.627 17.184H116.227L119.443 25.968L122.371 17.184H125.707Z" fill="#030119"/>
<defs>
<clipPath id="clip0_22_8932">
<rect y="0.924072" width="40" height="40.1519" rx="20" fill="white"/>
</clipPath>
</defs>
</svg>
